<svg width="188" height="44" viewBox="0 0 188 44" fill="none" xmlns="http://www.w3.org/2000/svg">
<path d="M93.9585 3.40576V42.9193" stroke="#F3F3F3" stroke-width="0.528022"/>
<ellipse rx="93.9568" ry="3.40526" transform="matrix(-1 0 0 1 93.9572 10.7988)" fill="url(#paint0_angular_415_2)"/>
<ellipse rx="93.9568" ry="3.40526" transform="matrix(-1 0 0 1 93.9572 3.40526)" fill="url(#paint1_angular_415_2)"/>
<ellipse rx="93.9568" ry="3.40526" transform="matrix(-1 0 0 1 93.9572 18.1941)" fill="url(#paint2_angular_415_2)"/>
<ellipse rx="93.9568" ry="3.40526" transform="matrix(-1 0 0 1 93.9572 25.5875)" fill="url(#paint3_angular_415_2)"/>
<ellipse rx="93.9568" ry="3.40526" transform="matrix(-1 0 0 1 93.9572 32.9811)" fill="url(#paint4_angular_415_2)"/>
<ellipse rx="93.9568" ry="3.40526" transform="matrix(-1 0 0 1 93.9572 40.3746)" fill="url(#paint5_angular_415_2)"/>
<defs>
<radialGradient id="paint0_angular_415_2" cx="0" cy="0" r="1" gradientUnits="userSpaceOnUse" gradientTransform="translate(93.9574 3.40526) rotate(90.0094) scale(3.40526 93.9569)">
<stop stop-color="white"/>
<stop offset="1" stop-color="#CECEFF"/>
</radialGradient>
<radialGradient id="paint1_angular_415_2" cx="0" cy="0" r="1" gradientUnits="userSpaceOnUse" gradientTransform="translate(93.9574 3.40526) rotate(90.0094) scale(3.40526 93.9569)">
<stop stop-color="white"/>
<stop offset="1" stop-color="#CECEFF"/>
</radialGradient>
<radialGradient id="paint2_angular_415_2" cx="0" cy="0" r="1" gradientUnits="userSpaceOnUse" gradientTransform="translate(93.9574 3.40526) rotate(90.0094) scale(3.40526 93.9569)">
<stop stop-color="white"/>
<stop offset="1" stop-color="#C5C5FF"/>
</radialGradient>
<radialGradient id="paint3_angular_415_2" cx="0" cy="0" r="1" gradientUnits="userSpaceOnUse" gradientTransform="translate(93.9574 3.40526) rotate(90.0094) scale(3.40526 93.9569)">
<stop stop-color="white"/>
<stop offset="1" stop-color="#C5C5FF"/>
</radialGradient>
<radialGradient id="paint4_angular_415_2" cx="0" cy="0" r="1" gradientUnits="userSpaceOnUse" gradientTransform="translate(93.9574 3.40526) rotate(90.0094) scale(3.40526 93.9569)">
<stop stop-color="white"/>
<stop offset="1" stop-color="#C5C5FF"/>
</radialGradient>
<radialGradient id="paint5_angular_415_2" cx="0" cy="0" r="1" gradientUnits="userSpaceOnUse" gradientTransform="translate(93.9574 3.40526) rotate(90.0094) scale(3.40526 93.9569)">
<stop stop-color="white"/>
<stop offset="1" stop-color="#C5C5FF"/>
</radialGradient>
</defs>
</svg>
