<svg width="538" height="537" viewBox="0 0 538 537" fill="none" xmlns="http://www.w3.org/2000/svg">
<g clip-path="url(#clip0_0_184)">
<path d="M344.34 128.571L363.26 96.2852" stroke="#3F3FF9" stroke-width="3.06965" stroke-miterlimit="10"/>
<path d="M318.947 117.594L331.948 82.5117" stroke="#3F3FF9" stroke-width="3.06965" stroke-miterlimit="10"/>
<path d="M291.997 111.208L298.73 74.4258" stroke="#3F3FF9" stroke-width="3.06965" stroke-miterlimit="10"/>
<path d="M264.37 109.627L264.585 72.2168" stroke="#3F3FF9" stroke-width="3.06965" stroke-miterlimit="10"/>
<path d="M236.879 112.833L230.614 75.9492" stroke="#3F3FF9" stroke-width="3.06965" stroke-miterlimit="10"/>
<path d="M210.358 120.762L197.779 85.5527" stroke="#3F3FF9" stroke-width="3.06965" stroke-miterlimit="10"/>
<path d="M185.597 133.208L167.125 100.676" stroke="#3F3FF9" stroke-width="3.06965" stroke-miterlimit="10"/>
<path d="M163.407 149.721L139.556 120.922" stroke="#3F3FF9" stroke-width="3.06965" stroke-miterlimit="10"/>
<path d="M144.418 169.874L115.911 145.652" stroke="#3F3FF9" stroke-width="3.06965" stroke-miterlimit="10"/>
<path d="M129.224 193.008L96.938 174.088" stroke="#3F3FF9" stroke-width="3.06965" stroke-miterlimit="10"/>
<path d="M118.248 218.4L83.1656 205.399" stroke="#3F3FF9" stroke-width="3.06965" stroke-miterlimit="10"/>
<path d="M111.86 245.35L75.0781 238.617" stroke="#3F3FF9" stroke-width="3.06965" stroke-miterlimit="10"/>
<path d="M110.282 272.976L72.8712 272.76" stroke="#3F3FF9" stroke-width="3.06965" stroke-miterlimit="10"/>
<path d="M113.485 300.468L76.6016 306.733" stroke="#3F3FF9" stroke-width="3.06965" stroke-miterlimit="10"/>
<path d="M121.414 326.989L86.2052 339.568" stroke="#3F3FF9" stroke-width="3.06965" stroke-miterlimit="10"/>
<path d="M133.861 351.75L101.328 370.223" stroke="#3F3FF9" stroke-width="3.06965" stroke-miterlimit="10"/>
<path d="M150.374 373.94L121.575 397.791" stroke="#3F3FF9" stroke-width="3.06965" stroke-miterlimit="10"/>
<path d="M170.527 392.929L146.305 421.436" stroke="#3F3FF9" stroke-width="3.06965" stroke-miterlimit="10"/>
<path d="M193.66 408.121L174.74 440.407" stroke="#3F3FF9" stroke-width="3.06965" stroke-miterlimit="10"/>
<path d="M219.054 419.1L206.053 454.182" stroke="#3F3FF9" stroke-width="3.06965" stroke-miterlimit="10"/>
<path d="M246.003 425.486L239.27 462.268" stroke="#3F3FF9" stroke-width="3.06965" stroke-miterlimit="10"/>
<path d="M273.629 427.064L273.395 464.506" stroke="#3F3FF9" stroke-width="3.06965" stroke-miterlimit="10"/>
<path d="M301.12 423.861L307.385 460.745" stroke="#3F3FF9" stroke-width="3.06965" stroke-miterlimit="10"/>
<path d="M327.642 415.932L340.221 451.141" stroke="#3F3FF9" stroke-width="3.06965" stroke-miterlimit="10"/>
<path d="M352.402 403.486L370.874 436.019" stroke="#3F3FF9" stroke-width="3.06965" stroke-miterlimit="10"/>
<path d="M374.592 386.973L398.444 415.772" stroke="#3F3FF9" stroke-width="3.06965" stroke-miterlimit="10"/>
<path d="M393.582 366.82L422.089 391.042" stroke="#3F3FF9" stroke-width="3.06965" stroke-miterlimit="10"/>
<path d="M408.776 343.686L441.062 362.606" stroke="#3F3FF9" stroke-width="3.06965" stroke-miterlimit="10"/>
<path d="M419.752 318.294L454.834 331.295" stroke="#3F3FF9" stroke-width="3.06965" stroke-miterlimit="10"/>
<path d="M426.14 291.343L462.922 298.077" stroke="#3F3FF9" stroke-width="3.06965" stroke-miterlimit="10"/>
<path d="M427.718 263.717L465.16 263.951" stroke="#3F3FF9" stroke-width="3.06965" stroke-miterlimit="10"/>
<path d="M424.514 236.225L461.397 229.96" stroke="#3F3FF9" stroke-width="3.06965" stroke-miterlimit="10"/>
<path d="M416.585 209.705L451.794 197.126" stroke="#3F3FF9" stroke-width="3.06965" stroke-miterlimit="10"/>
<path d="M404.139 184.943L436.672 166.471" stroke="#3F3FF9" stroke-width="3.06965" stroke-miterlimit="10"/>
<path d="M387.626 162.754L416.425 138.903" stroke="#3F3FF9" stroke-width="3.06965" stroke-miterlimit="10"/>
<path d="M367.473 143.764L391.695 115.257" stroke="#3F3FF9" stroke-width="3.06965" stroke-miterlimit="10"/>
<path d="M344.34 128.571L363.26 96.2852" stroke="#3F3FF9" stroke-width="3.06965" stroke-miterlimit="10"/>
<path d="M215.047 275.442L199.617 231.602" stroke="#54FF84" stroke-width="2.54" stroke-miterlimit="10"/>
<path d="M243.427 319.576L197.843 311.047" stroke="#54FF84" stroke-width="2.54" stroke-miterlimit="10"/>
<path d="M295.716 316.994L265.586 352.329" stroke="#54FF84" stroke-width="2.54" stroke-miterlimit="10"/>
<path d="M319.65 270.302L335.079 314.142" stroke="#54FF84" stroke-width="2.54" stroke-miterlimit="10"/>
<path d="M291.269 226.17L336.852 234.675" stroke="#54FF84" stroke-width="2.54" stroke-miterlimit="10"/>
<path d="M238.979 228.728L269.133 193.417" stroke="#54FF84" stroke-width="2.54" stroke-miterlimit="10"/>
</g>
<defs>
<clipPath id="clip0_0_184">
<rect width="392.214" height="392.214" fill="white" transform="translate(198.957) rotate(30.3711)"/>
</clipPath>
</defs>
</svg>
